<svg xmlns="http://www.w3.org/2000/svg" width="178.201" height="22.21" viewBox="0 0 178.201 22.21">
  <defs>
    <style>
      .cls-1 {
        fill: #fb4b42;
        fill-rule: evenodd;
      }
    </style>
  </defs>
  <g id="logo_v2" transform="translate(1134.243 178.806)">
    <path id="路径_105" data-name="路径 105" class="cls-1" d="M-1116.536-156.149v-21.085h-5.452v10.554l-7.554-10.554h-4.7v21.085h5.452v-10.523l7.521,10.523Z" transform="translate(0 -1.027)"/>
    <path id="路径_106" data-name="路径 106" class="cls-1" d="M-1071.5-177.234v21.085h6.03v-21.085Z" transform="translate(-40.967 -1.027)"/>
    <path id="路径_107" data-name="路径 107" class="cls-1" d="M-1042.391-177.234v21.085h6.031v-21.085Z" transform="translate(-59.971 -1.027)"/>
    <path id="路径_108" data-name="路径 108" class="cls-1" d="M-991.1-156.149v-21.085h-4.718l-6.351,9.4-6.386-9.4h-4.722v21.085h5.587v-10.07l5.517,8.053,5.487-8.069v10.086Z" transform="translate(-78.978 -1.027)"/>
    <path id="路径_109" data-name="路径 109" class="cls-1" d="M-925.994-156.6a6.5,6.5,0,0,0,2.327-1.266,5.517,5.517,0,0,0,1.439-1.973h0a6.549,6.549,0,0,0,.51-2.633,5.31,5.31,0,0,0-.359-2.089,6.414,6.414,0,0,0-.826-1.451,4.93,4.93,0,0,0-1.156-1.041l-.958-.609.862-.74a3.464,3.464,0,0,0,.683-.825,6.328,6.328,0,0,0,.506-1.124,4.767,4.767,0,0,0,.224-1.577,5.209,5.209,0,0,0-.477-2.309,4.547,4.547,0,0,0-1.324-1.613,6.268,6.268,0,0,0-2.139-1.018,10.9,10.9,0,0,0-2.9-.363h-8.068v21.085h8.444a10.65,10.65,0,0,0,3.211-.455Zm-6.307-16.954h1.662a2.282,2.282,0,0,1,2.549,2.412,2.282,2.282,0,0,1-2.549,2.413H-932.3v-4.825Zm0,13.733h0v-5.644h1.662c3.1,0,3.435,1.974,3.435,2.822s-.335,2.821-3.435,2.821Z" transform="translate(-128.358 -1.026)"/>
    <path id="路径_110" data-name="路径 110" class="cls-1" d="M-865.486-175.554a11.269,11.269,0,0,0-3.543-2.381,10.85,10.85,0,0,0-4.309-.871,10.835,10.835,0,0,0-4.309.871,11.218,11.218,0,0,0-3.543,2.381,11.251,11.251,0,0,0-2.383,3.544,10.854,10.854,0,0,0-.871,4.309,10.855,10.855,0,0,0,.871,4.311,11.24,11.24,0,0,0,2.381,3.542,11.235,11.235,0,0,0,3.544,2.382,11.112,11.112,0,0,0,8.622,0,11.237,11.237,0,0,0,3.541-2.381,11.259,11.259,0,0,0,2.382-3.543,10.851,10.851,0,0,0,.871-4.31,10.862,10.862,0,0,0-.871-4.31,11.308,11.308,0,0,0-2.382-3.543Zm-2.675,10.047h0a5.751,5.751,0,0,1-1.2,1.78,5.723,5.723,0,0,1-1.782,1.2,5.5,5.5,0,0,1-2.194.444,5.488,5.488,0,0,1-2.2-.444,5.732,5.732,0,0,1-1.781-1.2,5.722,5.722,0,0,1-1.2-1.78,5.491,5.491,0,0,1-.444-2.2,5.518,5.518,0,0,1,.442-2.193,5.76,5.76,0,0,1,1.2-1.781,5.725,5.725,0,0,1,1.784-1.2,5.64,5.64,0,0,1,4.387,0,5.719,5.719,0,0,1,1.781,1.2,5.761,5.761,0,0,1,1.2,1.781,5.5,5.5,0,0,1,.444,2.194,5.5,5.5,0,0,1-.444,2.194Z" transform="translate(-163.096)"/>
    <path id="路径_111" data-name="路径 111" class="cls-1" d="M-807.513-177.234h-17.855q.312.276.6.562a14.275,14.275,0,0,1,2.652,3.728h4v16.8h5.826v-16.8h4.782v-4.29Z" transform="translate(-201.667 -1.026)"/>
    <path id="路径_112" data-name="路径 112" class="cls-1" d="M-715.691-135.71v-10.247h-11.388v10.247h3.588v-1.316h4.211v1.316Zm-7.8-8.011h4.211v1.111h-4.211v-1.111Zm0,4.458h0v-1.111h4.211v1.111Z" transform="translate(-265.841 -21.447)"/>
    <path id="路径_113" data-name="路径 113" class="cls-1" d="M-760.656-156.507h3.589v-11.358h3.983L-753-170.1h-4.067v-7.709h-3.589v7.709h-4.067l-.084,2.237h4.151v11.358Z" transform="translate(-241.208 -0.65)"/>
    <path id="路径_114" data-name="路径 114" class="cls-1" d="M-740.128-145.957l.308,10.247h2.934l-.308-10.247Z" transform="translate(-257.321 -21.447)"/>
    <path id="路径_115" data-name="路径 115" class="cls-1" d="M-761.631-135.71l.308-10.247h-2.934l-.308,10.247Z" transform="translate(-241.366 -21.447)"/>
    <path id="路径_116" data-name="路径 116" class="cls-1" d="M-664.68-175.118l.088-2.693h-23.235v21.3h23.147l.107-2.711h-9.457l.469-3.117h7.579v-9.428h-8.091l.536-3.354Zm-19.444,0h6.9l-.536,3.354h-6.361v-3.354Zm6.4,15.9h-6.385l-.019-3.117h6.873l-.468,3.117Zm8.036-9.853h0v4.043h-14.441v-4.043Z" transform="translate(-291.468 -0.65)"/>
    <path id="路径_117" data-name="路径 117" class="cls-1" d="M-736.887-174.89h-2.934l-.308,5.584h2.934l.308-5.584Z" transform="translate(-257.321 -2.557)"/>
    <path id="路径_118" data-name="路径 118" class="cls-1" d="M-761.323-169.346l-.308-5.584h-2.933l.308,5.584Z" transform="translate(-241.366 -2.531)"/>
    <path id="路径_119" data-name="路径 119" class="cls-1" d="M-720.04-171.213h3.662l.084-2.237h-3.746v-1.111h3.97l.084-2.237h-4.054v-1.014h-3.588v1.014h-4.054l-.084,2.237h4.138v1.111h-3.746l-.084,2.237h3.83v1.111h-4.054l-.084,2.237h11.7l.084-2.237h-4.054v-1.111Z" transform="translate(-265.392 -0.65)"/>
  </g>
</svg>
